<?xml version="1.0" encoding="UTF-8" standalone="no"?>
<!-- Created with Inkscape (http://www.inkscape.org/) -->

<svg
   xmlns:dc="http://purl.org/dc/elements/1.1/"
   xmlns:cc="http://creativecommons.org/ns#"
   xmlns:rdf="http://www.w3.org/1999/02/22-rdf-syntax-ns#"
   xmlns:svg="http://www.w3.org/2000/svg"
   xmlns="http://www.w3.org/2000/svg"
   xmlns:sodipodi="http://sodipodi.sourceforge.net/DTD/sodipodi-0.dtd"
   xmlns:inkscape="http://www.inkscape.org/namespaces/inkscape"
   width="99.458229mm"
   height="56.443356mm"
   viewBox="0 0 352.41105 199.99614"
   id="svg2"
   version="1.1"
   inkscape:version="0.91 r13725"
   sodipodi:docname="dexter.svg">
  <defs
     id="defs4" />
  <sodipodi:namedview
     id="base"
     pagecolor="#ffffff"
     bordercolor="#666666"
     borderopacity="1.0"
     inkscape:pageopacity="0.0"
     inkscape:pageshadow="2"
     inkscape:zoom="0.7"
     inkscape:cx="1138.3902"
     inkscape:cy="362.2075"
     inkscape:document-units="px"
     inkscape:current-layer="layer1"
     showgrid="false"
     fit-margin-top="0"
     fit-margin-left="0"
     fit-margin-right="0"
     fit-margin-bottom="0"
     inkscape:window-width="1920"
     inkscape:window-height="1059"
     inkscape:window-x="0"
     inkscape:window-y="21"
     inkscape:window-maximized="1" />
  <metadata
     id="metadata7">
    <rdf:RDF>
      <cc:Work
         rdf:about="">
        <dc:format>image/svg+xml</dc:format>
        <dc:type
           rdf:resource="http://purl.org/dc/dcmitype/StillImage" />
        <dc:title></dc:title>
      </cc:Work>
    </rdf:RDF>
  </metadata>
  <g
     inkscape:label="Layer 1"
     inkscape:groupmode="layer"
     id="layer1"
     transform="translate(1355.441,-560.29462)">
    <g
       id="g3459">
      <path
         sodipodi:nodetypes="ssssscsssscssscssssssssssssssssssssccssssccsscsssscsssscsssssssssssssssssscssscssscssscssssssssssscsssccccssccss"
         style="fill:#f8a3a5"
         d="m -1252.8571,758.98533 c 0,-1.95987 10.2827,-14.11029 19.9452,-23.56795 23.4693,-22.97169 50.371,-39.70541 73.5548,-45.75347 11.6568,-3.04097 16.3496,-3.43817 51.5,-4.35904 23.9244,-0.62677 37.825,-1.40909 42.6303,-2.39923 21.2322,-4.3749 38.2411,-20.91801 42.7865,-41.61488 0.7852,-3.575 1.8001,-8.22084 2.2554,-10.32408 1.9197,-8.86792 4.8679,-0.66483 3.8902,10.82408 -2.2537,26.48407 -22.6347,46.62761 -52.1412,51.53364 -3.2567,0.54149 -22.1212,1.64692 -41.9212,2.45652 -19.8,0.80961 -37.0125,1.758 -38.25,2.10756 -1.5395,0.43484 -2.25,1.40077 -2.25,3.05875 0,5.74499 -8.3811,17.70812 -20.4046,29.12537 -8.1065,7.69781 -24.6344,20.39065 -30.8272,23.6743 -3.7591,1.99316 -5.9753,1.52701 -4.2328,-0.89028 0.5305,-0.73602 4.4707,-5.97106 8.756,-11.63343 10.3843,-13.72128 19.1873,-31.93243 15.4357,-31.93243 -2.1169,0 -18.4326,9.65901 -28.955,17.14153 -10.3208,7.33913 -17.8508,13.47313 -32.0136,26.07833 -4.8078,4.27908 -8.9703,7.78014 -9.25,7.78014 -0.2797,0 -0.5085,-0.58744 -0.5085,-1.30543 z m -100.9195,-11.78844 c -3.7604,-1.50306 -1.6207,-2.52781 11.3027,-5.41314 20.921,-4.67089 41.3154,-12.95609 58.3064,-23.68689 9.3165,-5.88392 8.9769,-6.49509 -5.1896,-9.3378 -12.2548,-2.45911 -23.5057,-8.40508 -22.224,-11.74513 0.4809,-1.25319 3.1997,-1.60022 14.9061,-1.90264 13.4383,-0.34717 14.6558,-0.54563 19.8179,-3.23048 7.6391,-3.97314 17.0081,-13.93552 26.914,-28.61844 4.6277,-6.85939 11.1527,-16.22486 14.5,-20.81216 9.4412,-12.93861 22.9657,-22.11149 38.1122,-25.84928 10.704,-2.64147 17.932,-0.61272 38.9163,10.92304 5.6002,3.07861 6.5219,3.26679 16,3.26679 8.5982,0 11.1909,-0.41699 17.8689,-2.87386 7.3323,-2.69757 16.9516,-8.32122 27.9429,-16.33603 l 4.7544,-3.46683 -1.7544,-3.00475 c -2.0718,-3.54846 -7.6463,-8.63094 -12.0891,-11.02202 -4.6217,-2.48736 -4.0746,-4.91245 1.8275,-8.10005 7.0762,-3.82174 12.0073,-3.29536 12.0073,1.28175 0,3.36576 6.9647,15.86632 12.4276,22.3057 3.1528,3.71639 7.4409,7.62868 9.5291,8.69398 2.0881,1.0653 4.0793,2.67352 4.4248,3.57381 0.8156,2.12549 -4.2528,6.92067 -8.9554,8.47268 -4.4972,1.48422 -5.9381,0.35788 -7.8717,-6.15318 -1.7164,-5.77956 -4.5678,-10.89776 -6.02,-10.80545 -0.5689,0.0362 -3.9594,3.68241 -7.5344,8.10276 -6.728,8.31892 -18.3032,18.41504 -25.0718,21.86811 -10.0564,5.13042 -30.0104,6.36123 -41.0133,2.52981 -6.0017,-2.08988 -10.4863,-1.95231 -15.5016,0.47553 -8.6409,4.18302 -19.3038,18.97518 -16.2931,22.60282 1.5972,1.92461 6.5219,1.46217 17.3798,-1.63201 11.4665,-3.2676 35.6626,-3.82024 66,-1.50743 29.9268,2.28151 39.1264,1.48326 51.0757,-4.43188 14.9886,-7.41961 23.8156,-19.51613 27.0627,-37.08654 2.1883,-11.84145 2.2081,-11.88957 3.933,-9.54579 0.9287,1.26184 1.4286,4.48158 1.4286,9.20078 0,15.30796 -4.0041,25.50006 -13.9361,35.47357 -10.0324,10.07426 -23.8116,16.04762 -40.0639,17.36789 -4.125,0.3351 -21.6878,-0.0936 -39.0283,-0.95259 -41.1214,-2.03707 -51.4801,-1.06996 -70.8451,6.61422 -18.5455,7.35904 -38.2425,19.48603 -59.3762,36.55662 -7.0122,5.66411 -13.436,10.29838 -14.2749,10.29838 -0.839,0 -4.6815,1.58938 -8.539,3.53196 -9.0197,4.54226 -22.258,8.96222 -34.2063,11.42067 -17.6164,3.62471 -41.2301,5.11975 -46.6497,2.9535 z m 93.9195,-2.97594 c 0,-4.21376 17.7822,-23.40598 32.9853,-35.60079 16.082,-12.89979 43.9244,-25.94899 59.6526,-27.95796 4.3836,-0.55993 4.7145,-0.46789 3.3621,0.93539 -0.825,0.85604 -6.45,3.65295 -12.5,6.21536 -28.4965,12.06937 -44.5023,22.51567 -68.7354,44.86076 -7.5257,6.93939 -13.9265,12.61706 -14.2239,12.61706 -0.2974,0 -0.5407,-0.48142 -0.5407,-1.06982 z m 230.5247,-59.89028 c -0.3282,-0.53103 0.4942,-2.69372 1.8276,-4.80599 4.5478,-7.20414 9.4076,-17.72235 12.0295,-26.03553 3.2822,-10.40705 3.4314,-19.54842 0.4965,-30.42526 -1.1669,-4.3247 -1.7971,-8.18034 -1.4003,-8.5681 1.3089,-1.27923 8.3998,7.85353 10.5806,13.62735 1.1774,3.1172 2.3761,8.17498 2.6638,11.23952 1.0059,10.71473 -5.3046,25.56097 -15.8144,37.20578 -6.5015,7.20357 -9.3928,9.36499 -10.3833,7.76223 z m -283.5247,-32.06232 c 0,-1.97369 11.596,-12.17291 21.0432,-18.50854 24.0742,-16.14493 53.3052,-25.48502 75.4568,-24.11052 10.4711,0.64973 16.7101,2.34543 16.2887,4.4271 -0.1608,0.79458 -3.8567,2.62216 -8.3445,4.12631 -4.4307,1.48501 -10.2606,3.93228 -12.9553,5.43839 -4.1105,2.29739 -6.3561,2.79691 -13.9442,3.10188 -4.9746,0.19992 -11.9697,0.89399 -15.5447,1.54236 -14.8471,2.69272 -35.5498,10.86132 -52.063,20.54237 -7.7106,4.52042 -9.937,5.2913 -9.937,3.44065 z m 150.5,-30.63643 c -10.1048,-5.3177 -14.4477,-15.10834 -11.325,-25.53091 1.1155,-3.72313 1.0268,-4.06838 -1.75,-6.8158 -2.8544,-2.82414 -3.0853,-2.87376 -9.5643,-2.0549 -5.9157,0.74765 -7.0804,1.28012 -10.6851,4.88485 -4.5119,4.5119 -9.0552,6.1617 -16.9913,6.17003 -6.528,0.007 -9.1843,-1.29307 -9.1843,-4.49442 0,-3.91528 3.3899,-5.05752 7.6137,-2.56543 4.2278,2.49447 6.0999,2.56396 11.4459,0.42489 3.04,-1.21635 3.9819,-2.09272 3.6428,-3.38931 -0.2515,-0.96181 -0.1749,-2.15395 0.1702,-2.64919 0.5788,-0.83073 24.2256,-18.19218 26.7352,-19.62896 1.6171,-0.92586 26.4108,-5.68359 29.6422,-5.68813 1.5125,-0.002 2.75,0.32152 2.75,0.71922 0,0.3977 -2.7184,3.46588 -6.0409,6.81817 -5.8836,5.93632 -6.0237,6.20252 -5.3812,10.22049 0.5396,3.37474 1.1834,4.308 3.5382,5.12886 16.8775,5.88354 18.7352,29.46307 2.9766,37.78261 -5.2234,2.75765 -13.0567,3.05505 -17.5927,0.66793 z"
         id="path3447"
         inkscape:connector-curvature="0" />
      <path
         sodipodi:nodetypes="ssccsscssssssssccssssssssssssssssccssssccsscsssscsscsssccssssssssssssssssccssssssscssssssssssscsssccccssccss"
         style="fill:#a6a6d0"
         d="m -1206.8571,754.23741 c 0,-0.57934 2.4136,-4.06684 5.3635,-7.75 6.8117,-8.50484 12.6934,-17.2761 15.9757,-23.82409 2.8032,-5.59204 5.2609,-14.10577 4.3384,-15.02828 -0.8542,-0.85424 -14.7189,6.95161 -26.2859,14.799 -5.5596,3.77178 -15.844,11.69505 -22.8543,17.60726 -7.0103,5.9122 -13.6691,11.41341 -14.7975,12.2249 -3.9289,2.82556 -0.2279,-2.29078 7.9303,-10.96299 20.3299,-21.6108 48.5283,-40.72683 71.3947,-48.39935 14.1742,-4.75596 23.079,-5.73229 60.4351,-6.62613 39.2926,-0.94019 44.1695,-1.61159 55.7573,-7.67603 14.4997,-7.58843 24.3815,-20.60898 28.6724,-37.77967 2.1675,-8.67378 3.0051,-10.22566 3.2101,-5.94794 1.0807,22.55152 -9.9624,40.46669 -31.3319,50.82942 -12.8047,6.20943 -20.7414,7.40941 -56.7904,8.58636 -28.2196,0.92132 -40.6607,1.653 -44.0926,2.59314 -1.1014,0.30174 -1.4494,1.28737 -1.1573,3.27778 1.1644,7.93382 -14.5565,26.98332 -35.3,42.77398 -13.2421,10.08039 -20.4676,14.07045 -20.4676,11.30264 z m -146.9195,-7.04052 c -3.7604,-1.50306 -1.6207,-2.52781 11.3027,-5.41314 20.921,-4.67089 41.3154,-12.95609 58.3064,-23.68689 9.3165,-5.88392 8.9769,-6.49509 -5.1896,-9.3378 -12.2548,-2.45911 -23.5057,-8.40508 -22.224,-11.74513 0.4809,-1.25319 3.1997,-1.60022 14.9061,-1.90264 13.4383,-0.34717 14.6558,-0.54563 19.8179,-3.23048 7.6391,-3.97314 17.0081,-13.93552 26.914,-28.61844 4.6277,-6.85939 11.1527,-16.22486 14.5,-20.81216 9.4412,-12.93861 22.9657,-22.11149 38.1122,-25.84928 10.704,-2.64147 17.932,-0.61272 38.9163,10.92304 5.6002,3.07861 6.5219,3.26679 16,3.26679 8.5982,0 11.1909,-0.41699 17.8689,-2.87386 7.3323,-2.69757 16.9516,-8.32122 27.9429,-16.33603 l 4.7544,-3.46683 -1.7544,-3.00475 c -2.0718,-3.54846 -7.6463,-8.63094 -12.0891,-11.02202 -4.6217,-2.48736 -4.0746,-4.91245 1.8275,-8.10005 7.0762,-3.82174 12.0073,-3.29536 12.0073,1.28175 0,3.36576 6.9647,15.86632 12.4276,22.3057 3.1528,3.71639 7.4409,7.62868 9.5291,8.69398 2.0881,1.0653 4.0793,2.67352 4.4248,3.57381 0.8156,2.12549 -4.2528,6.92067 -8.9554,8.47268 -4.4972,1.48422 -5.9381,0.35788 -7.8717,-6.15318 -1.7164,-5.77956 -4.5678,-10.89776 -6.02,-10.80545 -0.5689,0.0362 -3.9594,3.68241 -7.5344,8.10276 -6.728,8.31892 -18.3032,18.41504 -25.0718,21.86811 -10.0564,5.13042 -30.0104,6.36123 -41.0133,2.52981 -6.0017,-2.08988 -10.4863,-1.95231 -15.5016,0.47553 -8.5083,4.11881 -19.3043,18.97458 -16.364,22.5175 0.6576,0.7923 2.067,1.44054 3.1322,1.44054 1.2239,0 1.6705,0.43052 1.2135,1.16994 -0.5053,0.81758 -0.1466,0.94816 1.191,0.43356 1.0527,-0.40501 6.189,-1.88406 11.414,-3.28677 12.8829,-3.45856 35.0908,-4.15213 61.547,-1.92217 32.9323,2.77581 43.7535,1.98818 56.453,-4.10904 14.3819,-6.90494 23.8692,-19.32105 27.6094,-36.13273 1.3252,-5.95626 1.8528,-7.07824 2.6548,-5.64509 1.2736,2.27565 0.3234,13.38841 -1.7221,20.14156 -4.7138,15.56207 -20.0539,28.40891 -39.4205,33.01338 -5.7077,1.35702 -10.6243,1.45488 -35.6216,0.70904 -47.0934,-1.40513 -59.4604,-1.12854 -70,1.56555 -22.9441,5.86486 -47.6124,19.38805 -74.2197,40.68736 -12.9682,10.38115 -14.6467,11.5276 -23.1385,15.80399 -9.2113,4.63875 -22.3774,9.04792 -34.4116,11.52405 -17.6164,3.62471 -41.2301,5.11975 -46.6497,2.9535 z m 98.5113,-8.08301 c 4.0135,-7.41062 21.4249,-24.30435 36.1756,-35.09984 7.9216,-5.79757 23.9774,-13.69113 36.0565,-17.72653 13.0604,-4.36324 14.5493,-3.31751 2.6499,1.86108 -25.6955,11.18255 -42.6314,22.34008 -63.9689,42.14335 -9.8379,9.13051 -12.0476,10.91673 -10.9131,8.82194 z m 232.8477,-66.07312 c 6.8918,-12.77741 10.5605,-24.85064 10.5605,-34.75316 0,-4.51448 -0.7002,-10.91039 -1.556,-14.21312 -0.8559,-3.30273 -1.3619,-6.1992 -1.1245,-6.43658 0.9323,-0.93229 5.6305,5.9034 7.5099,10.92655 4.3967,11.75117 3.8006,19.37663 -2.5362,32.44464 -3.2476,6.69729 -14.2233,20.28167 -16.3869,20.28167 -0.5041,0 1.0858,-3.7125 3.5332,-8.25 z m -290.4395,-20.77242 c 0,-1.97369 11.596,-12.17291 21.0432,-18.50854 24.0742,-16.14493 53.3052,-25.48502 75.4568,-24.11052 10.4711,0.64973 16.7101,2.34543 16.2887,4.4271 -0.1608,0.79458 -3.8567,2.62216 -8.3445,4.12631 -4.4307,1.48501 -10.2606,3.93228 -12.9553,5.43839 -4.1105,2.29739 -6.3561,2.79691 -13.9442,3.10188 -4.9746,0.19992 -11.9697,0.89399 -15.5447,1.54236 -14.8471,2.69272 -35.5498,10.86132 -52.063,20.54237 -7.7106,4.52042 -9.937,5.2913 -9.937,3.44065 z m 150.5,-30.63643 c -10.1048,-5.3177 -14.4477,-15.10834 -11.325,-25.53091 1.1155,-3.72313 1.0268,-4.06838 -1.75,-6.8158 -2.8544,-2.82414 -3.0853,-2.87376 -9.5643,-2.0549 -5.9157,0.74765 -7.0804,1.28012 -10.6851,4.88485 -4.5119,4.5119 -9.0552,6.1617 -16.9913,6.17003 -6.528,0.007 -9.1843,-1.29307 -9.1843,-4.49442 0,-3.91528 3.3899,-5.05752 7.6137,-2.56543 4.2278,2.49447 6.0999,2.56396 11.4459,0.42489 3.04,-1.21635 3.9819,-2.09272 3.6428,-3.38931 -0.2515,-0.96181 -0.1749,-2.15395 0.1702,-2.64919 0.5788,-0.83073 24.2256,-18.19218 26.7352,-19.62896 1.6171,-0.92586 26.4108,-5.68359 29.6422,-5.68813 1.5125,-0.002 2.75,0.32152 2.75,0.71922 0,0.3977 -2.7184,3.46588 -6.0409,6.81817 -5.8836,5.93632 -6.0237,6.20252 -5.3812,10.22049 0.5396,3.37474 1.1834,4.308 3.5382,5.12886 16.8775,5.88354 18.7352,29.46307 2.9766,37.78261 -5.2234,2.75765 -13.0567,3.05505 -17.5927,0.66793 z"
         id="path3445"
         inkscape:connector-curvature="0" />
      <path
         sodipodi:nodetypes="cssssssssssscsssscccssssscsssssssccssssscssscssscssssssccsssssssssssssssccsssscssssssscssscccsccscscccssssscscs"
         style="fill:#f25e63"
         d="m -1246.0343,751.62193 c 2.0406,-3.81291 16.3568,-18.3473 26.1188,-26.51683 18.1771,-15.2119 37.1734,-26.51392 54.1233,-32.20124 14.1742,-4.75596 23.079,-5.73229 60.4351,-6.62613 39.2926,-0.94019 44.1695,-1.61159 55.7573,-7.67603 14.4997,-7.58843 24.3815,-20.60898 28.6724,-37.77967 2.1675,-8.67378 3.0051,-10.22566 3.2101,-5.94794 1.0807,22.55152 -9.9624,40.46669 -31.3319,50.82942 -12.8047,6.20943 -20.7414,7.40941 -56.7904,8.58636 -28.7377,0.93824 -40.6913,1.65346 -44.2675,2.64867 -1.0105,0.28121 -1.75,1.44742 -1.75,2.75989 0,7.67954 -14.9537,26.20371 -32.0754,39.73411 -8.7504,6.91495 -18.6828,13.43337 -19.3906,12.72561 -0.2443,-0.24432 2.9313,-4.92693 7.0568,-10.4058 8.4643,-11.24086 15.2743,-24.03727 16.1107,-30.27254 0.7147,-5.32839 0.061,-5.33154 -9.6162,-0.0463 -11.9593,6.53163 -26.7193,16.94525 -40.5479,28.6078 -7.0103,5.9122 -13.6691,11.41341 -14.7975,12.2249 -1.9371,1.39311 -1.9883,1.35715 -0.9171,-0.64427 z m -103.8228,-6.22283 c 0.825,-0.45696 5.775,-1.84832 11,-3.09192 19.6854,-4.68531 36.9286,-11.85265 53.75,-22.34193 6.1955,-3.86331 8.25,-5.68183 8.25,-7.30246 0,-2.60342 -0.907,-2.98428 -12.8243,-5.38475 -8.817,-1.77599 -19.102,-6.2661 -19.9107,-8.69242 -0.2172,-0.65156 4.4003,-1.19787 12.6393,-1.49537 12.2126,-0.44099 13.3849,-0.66613 19.7886,-3.80038 8.9617,-4.38615 16.6043,-12.2451 27.2342,-28.00502 14.1633,-20.99862 21.4595,-30.3017 27.1431,-34.6091 12.8058,-9.70497 23.4983,-13.75478 34.929,-13.22932 7.6201,0.3503 13.2699,2.55133 29.0376,11.31256 14.4112,8.00741 33.1703,4.22806 55.9618,-11.27448 6.3242,-4.30166 11.632,-8.51397 11.795,-9.36068 0.4614,-2.39561 -7.3705,-11.5766 -11.8057,-13.83922 -2.1933,-1.11898 -3.9879,-2.64411 -3.9879,-3.38918 0,-1.35364 4.1426,-2.60467 8.625,-2.60467 1.4444,0 2.375,-0.58772 2.375,-1.5 0,-3.15484 1.9074,-1.29485 3.4572,3.3713 3.4342,10.33936 13.7926,24.32637 21.3422,28.81847 2.6713,1.58945 4.1835,3.16066 3.9931,4.14906 -0.4572,2.37398 -6.8565,6.2959 -9.7195,5.95679 -2.0901,-0.24757 -2.852,-1.33271 -4.6868,-6.67527 -1.205,-3.50881 -3.3009,-7.48959 -4.6575,-8.84618 l -2.4665,-2.46652 -7.3811,8.77414 c -8.7927,10.45215 -18.1632,18.43594 -26.3811,22.47696 -10.6978,5.26047 -27.6877,5.85845 -41.8626,1.4734 -6.3091,-1.95174 -11.5458,-0.7071 -18.2223,4.33106 -5.9189,4.46635 -12.2468,13.3251 -13.0489,18.26753 -0.5445,3.3552 -0.3669,3.67338 2.6347,4.71973 2.6825,0.93514 4.6574,0.71331 11.8588,-1.33212 4.7522,-1.34976 11.5653,-2.91516 15.1403,-3.47868 9.2356,-1.45576 31.6564,-1.25853 51.5,0.45303 31.2397,2.69451 42.9783,1.80467 55.5,-4.20718 14.3819,-6.90494 23.8692,-19.32105 27.6094,-36.13273 1.3252,-5.95626 1.8528,-7.07824 2.6548,-5.64509 1.2736,2.27565 0.3234,13.38841 -1.7221,20.14156 -4.7138,15.56207 -20.0539,28.40891 -39.4205,33.01338 -5.7077,1.35702 -10.6243,1.45488 -35.6216,0.70904 -47.0934,-1.40513 -59.4604,-1.12854 -70,1.56555 -22.9968,5.87831 -47.9677,19.58296 -74.1908,40.71774 -17.6806,14.2498 -41.0339,23.79659 -68.0526,27.81976 -10.7727,1.60408 -34.863,2.07728 -32.2566,0.63361 z m 94.5918,-6.28522 c 4.0135,-7.41062 21.4249,-24.30435 36.1756,-35.09984 7.9216,-5.79757 23.9774,-13.69113 36.0565,-17.72653 13.0604,-4.36324 14.5493,-3.31751 2.6499,1.86108 -25.6955,11.18255 -42.6314,22.34008 -63.9689,42.14335 -9.8379,9.13051 -12.0476,10.91673 -10.9131,8.82194 z m 232.8477,-66.07312 c 6.8918,-12.77741 10.5605,-24.85064 10.5605,-34.75316 0,-4.51448 -0.7002,-10.91039 -1.556,-14.21312 -0.8559,-3.30273 -1.3619,-6.1992 -1.1245,-6.43658 0.9323,-0.93229 5.6305,5.9034 7.5099,10.92655 4.3967,11.75117 3.8006,19.37663 -2.5362,32.44464 -3.2476,6.69729 -14.2233,20.28167 -16.3869,20.28167 -0.5041,0 1.0858,-3.7125 3.5332,-8.25 z m -285.784,-24.29455 c 0.709,-1.84769 12.401,-11.295 19.7838,-15.9856 13.6377,-8.66461 33.3706,-16.70632 49.0607,-19.9936 9.5368,-1.99808 27.2588,-2.30028 33.3772,-0.56914 5.1062,1.44475 4.6204,2.21793 -2.8772,4.57917 -3.025,0.95267 -8.328,3.25799 -11.7844,5.12292 -5.3945,2.91064 -7.2523,3.3908 -13.119,3.3908 -16.997,0 -38.6442,6.26138 -60.7836,17.5814 -7.8029,3.98966 -13.9488,6.63298 -13.6575,5.87405 z m 147.3917,-27.70449 c -5.0898,-1.70498 -10.4572,-7.57201 -12.014,-13.13244 -1.1365,-4.05921 -1.1062,-5.5388 0.2106,-10.26971 l 1.5384,-5.52724 -3.0682,-3.4945 -3.0682,-3.49449 -7.0729,0.67809 c -3.8901,0.37295 -8.0438,1.2937 -9.2303,2.04611 -1.8775,1.19047 -2.2394,1.15443 -2.789,-0.27766 -0.8108,-2.11289 0.5057,-3.33107 14.0781,-13.02659 l 11.1317,-7.95201 13.8176,-2.61763 c 7.5997,-1.43969 14.0229,-2.4123 14.2739,-2.16136 0.2509,0.25094 -1.8638,2.90932 -4.6993,5.9075 -4.3648,4.61506 -5.1533,6.03565 -5.1403,9.26111 0.02,4.90203 0.4862,5.51195 6.4847,8.47845 13.7458,6.79787 15.2951,24.37968 2.9168,33.09967 -4.5544,3.20839 -12.0184,4.27525 -17.3696,2.4827 z m -58.4597,-25.01874 c -2.2783,-1.71903 -1.5206,-4.73222 1.19,-4.73222 1.0121,0 2.7137,0.66068 3.7814,1.46819 2.7859,2.10717 8.8703,1.86365 13.5895,-0.54391 2.5772,-1.31476 3.9148,-1.614 3.6489,-0.81625 -1.3728,4.11844 -18.2288,7.62794 -22.2098,4.62419 z"
         id="path3443"
         inkscape:connector-curvature="0" />
      <path
         sodipodi:nodetypes="csssssssssscsscscssssscsssssssccssssscssscsssccscsssssccsssssssssssssscsccsssscssssssscssscccsccscscccssssscscs"
         style="fill:#5d5eaa"
         d="m -1203.3975,751.35619 c 0.3176,-0.51401 3.7409,-5.12651 7.6071,-10.25 3.8663,-5.12349 8.8578,-12.98016 11.0923,-17.45926 4.1121,-8.24285 6.1822,-17.35617 3.9425,-17.35617 -4.429,0 -30.4255,16.81252 -48.0931,31.10288 -9.1761,7.42213 -10.8418,8.47453 -8.2667,5.22321 4.3071,-5.43808 21.3573,-20.33747 32.0945,-28.04595 10.4232,-7.48297 28.8426,-17.18814 39.2287,-20.66958 14.1831,-4.7542 23.0857,-5.72991 60.4351,-6.62359 39.2747,-0.93976 44.1958,-1.61613 55.6849,-7.65345 13.7628,-7.23216 23.0473,-18.0915 28.0438,-32.80056 2.5175,-7.4113 2.7294,-7.72341 2.7381,-4.03296 0.038,16.21765 -12.2357,33.22192 -30.3045,41.98358 -12.6331,6.12589 -20.7031,7.34026 -56.6448,8.52391 -43.4754,1.43176 -47.3679,1.93672 -46.3035,6.00681 1.6049,6.1372 -13.3233,25.2483 -30.6193,39.19899 -11.4041,9.1983 -22.7408,16.25912 -20.6351,12.85214 z m -146.4596,-5.95709 c 0.825,-0.45696 5.775,-1.84832 11,-3.09192 19.6854,-4.68531 36.9286,-11.85265 53.75,-22.34193 6.1955,-3.86331 8.25,-5.68183 8.25,-7.30246 0,-2.60342 -0.907,-2.98428 -12.8243,-5.38475 -8.817,-1.77599 -19.102,-6.2661 -19.9107,-8.69242 -0.2172,-0.65156 4.4003,-1.19787 12.6393,-1.49537 12.2126,-0.44099 13.3849,-0.66613 19.7886,-3.80038 8.9617,-4.38615 16.6043,-12.2451 27.2342,-28.00502 14.1633,-20.99862 21.4595,-30.3017 27.1431,-34.6091 12.8058,-9.70497 23.4983,-13.75478 34.929,-13.22932 7.6201,0.3503 13.2699,2.55133 29.0376,11.31256 14.4112,8.00741 33.1703,4.22806 55.9618,-11.27448 6.3242,-4.30166 11.632,-8.51397 11.795,-9.36068 0.4614,-2.39561 -7.3705,-11.5766 -11.8057,-13.83922 -2.1933,-1.11898 -3.9879,-2.64411 -3.9879,-3.38918 0,-1.35364 4.1426,-2.60467 8.625,-2.60467 1.4444,0 2.375,-0.58772 2.375,-1.5 0,-3.15484 1.9074,-1.29485 3.4572,3.3713 3.4342,10.33936 13.7926,24.32637 21.3422,28.81847 2.6713,1.58945 4.1835,3.16066 3.9931,4.14906 -0.4572,2.37398 -6.8565,6.2959 -9.7195,5.95679 -2.0901,-0.24757 -2.852,-1.33271 -4.6868,-6.67527 -1.205,-3.50881 -3.3009,-7.48959 -4.6575,-8.84618 l -2.4665,-2.46652 -7.3811,8.77414 c -8.7927,10.45215 -18.1632,18.43594 -26.3811,22.47696 -10.6978,5.26047 -27.6877,5.85845 -41.8626,1.4734 -6.3091,-1.95174 -11.5458,-0.7071 -18.2223,4.33106 -5.9335,4.47736 -12.2474,13.32849 -13.0541,18.2997 -0.5179,3.19105 -0.3032,3.7192 1.775,4.36829 1.3002,0.4061 2.6327,1.1555 2.9612,1.66533 0.3435,0.53321 4.379,-0.14759 9.5,-1.60266 4.8965,-1.39129 11.8278,-2.99068 15.4028,-3.5542 9.2356,-1.45576 31.6564,-1.25853 51.5,0.45303 20.0294,1.72759 32.5432,1.87341 41.5,0.48358 9.4732,-1.46997 21.2087,-7.54765 28.3053,-14.65893 5.9724,-5.98477 12.0787,-16.51713 13.2759,-22.89844 0.355,-1.89255 1.0445,-3.68759 1.5322,-3.98897 2.6124,-1.61459 -1.0314,14.81133 -4.8366,21.80272 -3.6557,6.71688 -13.4666,15.60024 -21.5752,19.53548 -12.6127,6.12122 -16.6065,6.57607 -49.2016,5.60354 -47.0934,-1.40513 -59.4604,-1.12854 -70,1.56555 -23.3854,5.97765 -46.1457,18.4253 -74,40.47068 -6.6,5.22359 -14.7,11.01367 -18,12.86683 -13.5718,7.62145 -31.5403,13.41504 -50.2434,16.19999 -10.7727,1.60408 -34.863,2.07728 -32.2566,0.63361 z m 108.5,-21.00052 c 13.3919,-13.80765 29.06,-24.88087 45.2845,-32.00414 14.2745,-6.26714 14.5527,-5.64224 0.7155,1.60714 -15.1894,7.95778 -24.5276,14.23938 -38.0217,25.57631 -14.2104,11.93867 -15.8326,12.91889 -7.9783,4.82069 z m 218.5,-47.48135 c 0,-0.37593 1.3627,-3.38304 3.0283,-6.68248 1.6655,-3.29943 4.413,-10.13225 6.1055,-15.18403 2.842,-8.48266 3.0392,-9.95266 2.5789,-19.22251 -0.2742,-5.5206 -0.8497,-11.16245 -1.279,-12.53745 -0.6962,-2.23002 -0.6039,-2.35517 0.8551,-1.1589 2.2219,1.82177 5.5629,11.04604 6.3133,17.43034 0.8074,6.86984 -3.0518,18.62754 -9.1003,27.72583 -4.1077,6.17887 -8.5018,11.15566 -8.5018,9.6292 z m -285.3445,-28.17102 c 0.709,-1.84769 12.401,-11.295 19.7838,-15.9856 13.6377,-8.66461 33.3706,-16.70632 49.0607,-19.9936 9.5368,-1.99808 27.2588,-2.30028 33.3772,-0.56914 5.1062,1.44475 4.6204,2.21793 -2.8772,4.57917 -3.025,0.95267 -8.328,3.25799 -11.7844,5.12292 -5.3945,2.91064 -7.2523,3.3908 -13.119,3.3908 -16.997,0 -38.6442,6.26138 -60.7836,17.5814 -7.8029,3.98966 -13.9488,6.63298 -13.6575,5.87405 z m 147.3917,-27.70449 c -5.0898,-1.70498 -10.4572,-7.57201 -12.014,-13.13244 -1.1365,-4.05921 -1.1062,-5.5388 0.2106,-10.26971 l 1.5384,-5.52724 -3.0682,-3.4945 -3.0682,-3.49449 -7.0729,0.67809 c -3.8901,0.37295 -8.0438,1.2937 -9.2303,2.04611 -1.8775,1.19047 -2.2394,1.15443 -2.789,-0.27766 -0.8108,-2.11289 0.5057,-3.33107 14.0781,-13.02659 l 11.1317,-7.95201 13.8176,-2.61763 c 7.5997,-1.43969 14.0229,-2.4123 14.2739,-2.16136 0.2509,0.25094 -1.8638,2.90932 -4.6993,5.9075 -4.3648,4.61506 -5.1533,6.03565 -5.1403,9.26111 0.02,4.90203 0.4862,5.51195 6.4847,8.47845 13.7458,6.79787 15.2951,24.37968 2.9168,33.09967 -4.5544,3.20839 -12.0184,4.27525 -17.3696,2.4827 z m -58.4597,-25.01874 c -2.2783,-1.71903 -1.5206,-4.73222 1.19,-4.73222 1.0121,0 2.7137,0.66068 3.7814,1.46819 2.7859,2.10717 8.8703,1.86365 13.5895,-0.54391 2.5772,-1.31476 3.9148,-1.614 3.6489,-0.81625 -1.3728,4.11844 -18.2288,7.62794 -22.2098,4.62419 z"
         id="path3441"
         inkscape:connector-curvature="0" />
      <path
         sodipodi:nodetypes="cccsssssssscssssccssscsssssssssssssssscsssssccssssssscssssssscsccssssssssssssscssscscsssssscscscssscsssssssss"
         style="fill:#ee2c33"
         d="m -1199.8571,748.95873 c 0,-0.30913 2.2224,-3.49824 4.9386,-7.08692 6.2963,-8.31852 12.5481,-18.84745 14.5218,-24.45678 2.0353,-5.78465 2.0407,-11.12427 0.011,-11.12427 -4.7887,0 -30.067,16.22326 -48.4631,31.10288 -9.1762,7.42213 -10.8418,8.47453 -8.2667,5.22321 4.3071,-5.43808 21.3572,-20.33747 32.0945,-28.04595 10.4232,-7.48297 28.8426,-17.18814 39.2287,-20.66958 14.1831,-4.7542 23.0857,-5.72991 60.4351,-6.62359 39.2747,-0.93976 44.1958,-1.61613 55.6848,-7.65345 13.7629,-7.23216 23.0474,-18.0915 28.0439,-32.80056 2.5175,-7.4113 2.7294,-7.72341 2.7381,-4.03296 0.038,16.21765 -12.2357,33.22192 -30.3045,41.98358 -12.6421,6.13025 -20.7031,7.34208 -56.6448,8.51553 -45.766,1.49419 -47.5582,1.77886 -47.7226,7.58054 -0.1459,5.14731 -5.5883,13.44245 -15.2949,23.3119 -9.7577,9.92141 -31,26.89911 -31,24.77642 z m -138.5,-5.31717 c 15.8379,-4.56438 22.9736,-7.00234 31.5743,-10.7875 10.6334,-4.67972 27.6545,-14.50118 30.412,-17.54815 1.6423,-1.8147 1.6561,-2.14889 0.1818,-4.39887 -1.4653,-2.2364 -8.2957,-4.61628 -13.2489,-4.61628 -2.3678,0 -13.3849,-3.93203 -16.2404,-5.79627 -2.55,-1.66476 -2.3222,-1.71657 9.9601,-2.26513 11.1383,-0.49746 13.2412,-0.88697 18.4655,-3.4202 9.1299,-4.42709 19.189,-15.28544 32.4411,-35.0184 12.9459,-19.27716 22.167,-29.25972 31.6792,-34.29516 18.9342,-10.02315 29.3796,-9.63296 49.2589,1.8401 11.7183,6.76298 18.7343,8.08963 30.2212,5.71441 10.1288,-2.09441 20.366,-6.92296 32.5221,-15.3395 5.2083,-3.60614 9.6448,-6.38152 9.8588,-6.16751 0.73,0.73003 -10.208,13.23275 -17.0895,19.53424 -3.9829,3.64714 -9.9764,7.82417 -14.2752,9.94878 -7.0105,3.46475 -8.0384,3.6832 -19.0655,4.05183 -7.0265,0.23489 -13.4427,-0.0775 -16.1555,-0.7865 -13.4435,-3.51363 -13.2184,-3.50513 -19.283,-0.72869 -6.6705,3.05387 -13.8459,10.07538 -17.3375,16.96573 -3.0132,5.94639 -2.7867,9.35879 0.7637,11.50102 2.4741,1.49288 3.2415,1.42672 12,-1.0345 5.1462,-1.44615 12.2818,-3.09281 15.8568,-3.65925 9.2199,-1.46085 31.6314,-1.26602 51.5,0.4477 20.0294,1.72759 32.5432,1.87341 41.5,0.48358 9.4732,-1.46997 21.2087,-7.54765 28.3053,-14.65893 5.9724,-5.98477 12.0787,-16.51713 13.2759,-22.89844 0.355,-1.89255 1.0445,-3.68759 1.5322,-3.98897 2.6124,-1.61459 -1.0314,14.81133 -4.8366,21.80272 -3.6557,6.71688 -13.4666,15.60024 -21.5752,19.53548 -12.6127,6.12122 -16.6065,6.57607 -49.2016,5.60354 -47.0934,-1.40513 -59.4604,-1.12854 -70,1.56555 -22.6799,5.79731 -45.5869,18.15173 -72.1576,38.91664 -15.9913,12.49717 -33.5643,21.12398 -53.0944,26.06463 -10.9119,2.76046 -27.7759,5.10012 -35.8763,4.97738 l -6.8717,-0.10411 z m 97,-19.24298 c 13.3919,-13.80765 29.06,-24.88087 45.2845,-32.00414 14.2745,-6.26714 14.5527,-5.64224 0.7155,1.60714 -15.1894,7.95778 -24.5276,14.23938 -38.0217,25.57631 -14.2104,11.93867 -15.8326,12.91889 -7.9783,4.82069 z m 218.5,-47.48135 c 0,-0.37593 1.3627,-3.38304 3.0283,-6.68248 1.6655,-3.29943 4.413,-10.13225 6.1055,-15.18403 2.842,-8.48266 3.0392,-9.95266 2.5789,-19.22251 -0.2742,-5.5206 -0.8497,-11.16245 -1.279,-12.53745 -0.6962,-2.23002 -0.6039,-2.35517 0.8551,-1.1589 2.2219,1.82177 5.5629,11.04604 6.3133,17.43034 0.8074,6.86984 -3.0518,18.62754 -9.1003,27.72583 -4.1077,6.17887 -8.5018,11.15566 -8.5018,9.6292 z m -277.5,-34.10695 c 13.5219,-11.72927 39.9978,-24.34091 60,-28.58055 9.1304,-1.93528 28.2811,-2.5197 33.5,-1.02233 2.375,0.68143 2.3,0.78214 -1.5,2.01478 -2.2,0.71363 -7.5396,3.04599 -11.8658,5.18304 -7.0171,3.46629 -8.6726,3.88554 -15.3429,3.88554 -15.0324,0 -35.7084,5.74334 -55.2695,15.35263 -12.7549,6.26581 -13.3054,6.4489 -9.5218,3.16689 z m 221.142,-16.26952 c -0.271,-0.9625 -0.7813,-3.18644 -1.1341,-4.94209 -0.7965,-3.96403 -6.0013,-11.30791 -8.0142,-11.30791 -0.9424,0 -1.4937,-0.9608 -1.4937,-2.60345 0,-1.88813 -1.909,-4.51246 -6.9479,-9.55137 -3.8214,-3.82136 -6.4089,-7.11475 -5.75,-7.31864 0.6588,-0.20389 2.8462,-0.64381 4.8608,-0.9776 3.4844,-0.57731 3.7185,-0.43842 4.8039,2.85047 2.6715,8.09461 14.0704,22.69116 21.2832,27.25362 2.0625,1.30463 3.75,2.80726 3.75,3.33919 0,1.13844 -7.2575,5.00778 -9.3928,5.00778 -0.8098,0 -1.6942,-0.7875 -1.9652,-1.75 z m -80.9868,-6.70865 c -4.4914,-1.60139 -8.2178,-4.83478 -10.3931,-9.01795 -1.8394,-3.53729 -2.0367,-12.20751 -0.3496,-15.35999 1.5747,-2.94221 0.706,-5.03453 -3.5635,-8.58352 l -3.513,-2.9201 -8.168,1.00761 c -4.4924,0.55418 -8.3241,0.88715 -8.5149,0.73992 -0.4606,-0.35549 17.7216,-13.82224 21.9949,-16.29064 2.8285,-1.63383 22.548,-6.11668 26.9066,-6.11668 0.7536,0 -0.7504,2.15295 -3.3422,4.78435 -4.2083,4.27255 -4.7108,5.26205 -4.6971,9.25 0.019,5.63704 0.536,6.40218 5.7249,8.47837 6.9709,2.7892 12.2927,10.61475 12.2323,17.98728 -0.052,6.3421 -6.9184,14.55767 -13.7536,16.45599 -4.715,1.30948 -5.8535,1.2648 -10.5637,-0.41464 z m -57.9052,-24.62145 c -0.9625,-0.56061 -1.75,-1.44692 -1.75,-1.96959 0,-0.52267 0.7875,-0.936 1.75,-0.91851 1.8163,0.033 5.25,2.2099 5.25,3.32844 0,0.97922 -3.286,0.70361 -5.25,-0.44034 z"
         id="path3439"
         inkscape:connector-curvature="0" />
      <path
         sodipodi:nodetypes="scsssssssscsssssssssssssssssssssscssssssssssssssssssscsssscscscsscssssssssscssscscsssssscscscssscsssssssss"
         style="fill:#ec1b23"
         d="m -1199.8571,748.95873 c 0,-0.30913 2.2224,-3.49824 4.9386,-7.08692 10.0604,-13.29153 16.0614,-25.31539 16.0614,-32.1811 0,-2.64246 0.5799,-3.64772 2.75,-4.7671 4.7509,-2.45066 20.1481,-6.88591 21.7589,-6.26779 4.0314,1.54698 -2.8743,13.69666 -14.5089,25.52649 -9.7577,9.92141 -31,26.89911 -31,24.77642 z m -138.5,-5.31717 c 15.8379,-4.56438 22.9736,-7.00234 31.5743,-10.7875 10.6334,-4.67972 27.6545,-14.50118 30.412,-17.54815 1.6423,-1.8147 1.6561,-2.14889 0.1818,-4.39887 -1.4653,-2.2364 -8.2957,-4.61628 -13.2489,-4.61628 -2.3678,0 -13.3849,-3.93203 -16.2404,-5.79627 -2.55,-1.66476 -2.3222,-1.71657 9.9601,-2.26513 11.1383,-0.49746 13.2412,-0.88697 18.4655,-3.4202 9.1299,-4.42709 19.189,-15.28544 32.4411,-35.0184 12.9459,-19.27716 22.167,-29.25972 31.6792,-34.29516 18.9342,-10.02315 29.3796,-9.63296 49.2589,1.8401 11.7183,6.76298 18.7343,8.08963 30.2212,5.71441 10.1288,-2.09441 20.366,-6.92296 32.5221,-15.3395 5.2083,-3.60614 9.6448,-6.38152 9.8588,-6.16751 0.73,0.73003 -10.208,13.23275 -17.0895,19.53424 -3.9829,3.64714 -9.9764,7.82417 -14.2752,9.94878 -7.0105,3.46475 -8.0384,3.6832 -19.0655,4.05183 -7.0265,0.23489 -13.4427,-0.0775 -16.1555,-0.7865 -13.4435,-3.51363 -13.2184,-3.50513 -19.283,-0.72869 -6.6318,3.03615 -13.8417,10.06721 -17.279,16.8503 -3.0485,6.0159 -3.102,9.18738 -0.188,11.14642 1.2375,0.83196 2.025,1.67628 1.75,1.87627 -0.275,0.19999 -4.55,2.31556 -9.5,4.70127 -17.1842,8.28214 -41.3948,26.3128 -52.749,39.28446 -10.5986,12.10847 -34.6591,22.01772 -63.8793,26.30856 -5.8456,0.8584 -13.7206,1.51387 -17.5,1.4566 l -6.8717,-0.10411 z m 112.5,-10.62725 c 0,-1.15609 18.4274,-15.68473 27.1749,-21.42534 17.1635,-11.26376 34.2222,-18.35473 51.5013,-21.40819 3.2031,-0.56603 21.7988,-1.41834 41.3238,-1.89403 40.2869,-0.98152 44.5702,-1.59012 57.1113,-8.11471 10.5354,-5.48112 19.4035,-14.23264 24.425,-24.10403 4.3332,-8.51826 3.8229,-4.24147 -0.5795,4.85696 -4.1701,8.61843 -14.3928,18.06979 -25.1831,23.28309 -11.6658,5.63632 -20.5239,6.92059 -55.7228,8.07885 -35.5252,1.169 -39.0075,1.48442 -50.5509,4.57866 -23.3331,6.25453 -42.4336,15.98812 -64.75,32.99659 -2.6125,1.99112 -4.75,3.40959 -4.75,3.15215 z m -21.5,-21.63571 c 4.2391,-4.65005 17.5742,-15.28018 27,-21.52315 16.5006,-10.9288 35.7199,-18.51505 54.5,-21.51223 9.1982,-1.46796 31.5965,-1.27649 51.5,0.44024 32.1517,2.77317 43.1101,1.8654 56.5,-4.68029 10.934,-5.34514 18.6333,-12.84971 23.5801,-22.98378 2.6201,-5.36743 3.3922,-6.392 2.8852,-3.82863 -3.038,15.36197 -19.1193,30.11371 -37.5684,34.46256 -7.9489,1.87372 -26.5638,1.9895 -60.3969,0.37564 -28.14,-1.34229 -39.5351,-0.38187 -55,4.63558 -16.6189,5.39187 -39.4196,18.17266 -61,34.19308 l -5,3.7118 z m 229.0559,-41.58784 c 0.4082,-1.1 2.3596,-6.05 4.3365,-11 3.4421,-8.61887 3.5946,-9.52175 3.601,-21.32044 0.01,-11.14323 0.1321,-12.01294 1.3198,-9.1022 4.3824,10.74003 3.7637,19.25703 -2.2907,31.5373 -3.3606,6.8164 -8.5713,14.21016 -6.9666,9.88534 z m -282.0559,-26.98048 c 13.5219,-11.72927 39.9978,-24.34091 60,-28.58055 9.1304,-1.93528 28.2811,-2.5197 33.5,-1.02233 2.375,0.68143 2.3,0.78214 -1.5,2.01478 -2.2,0.71363 -7.5396,3.04599 -11.8658,5.18304 -7.0171,3.46629 -8.6726,3.88554 -15.3429,3.88554 -15.0324,0 -35.7084,5.74334 -55.2695,15.35263 -12.7549,6.26581 -13.3054,6.4489 -9.5218,3.16689 z m 221.142,-16.26952 c -0.271,-0.9625 -0.7813,-3.18644 -1.1341,-4.94209 -0.7965,-3.96403 -6.0013,-11.30791 -8.0142,-11.30791 -0.9424,0 -1.4937,-0.9608 -1.4937,-2.60345 0,-1.88813 -1.909,-4.51246 -6.9479,-9.55137 -3.8214,-3.82136 -6.4089,-7.11475 -5.75,-7.31864 0.6588,-0.20389 2.8462,-0.64381 4.8608,-0.9776 3.4844,-0.57731 3.7185,-0.43842 4.8039,2.85047 2.6715,8.09461 14.0704,22.69116 21.2832,27.25362 2.0625,1.30463 3.75,2.80726 3.75,3.33919 0,1.13844 -7.2575,5.00778 -9.3928,5.00778 -0.8098,0 -1.6942,-0.7875 -1.9652,-1.75 z m -80.9868,-6.70865 c -4.4914,-1.60139 -8.2178,-4.83478 -10.3931,-9.01795 -1.8394,-3.53729 -2.0367,-12.20751 -0.3496,-15.35999 1.5747,-2.94221 0.706,-5.03453 -3.5635,-8.58352 l -3.513,-2.9201 -8.168,1.00761 c -4.4924,0.55418 -8.3241,0.88715 -8.5149,0.73992 -0.4606,-0.35549 17.7216,-13.82224 21.9949,-16.29064 2.8285,-1.63383 22.548,-6.11668 26.9066,-6.11668 0.7536,0 -0.7504,2.15295 -3.3422,4.78435 -4.2083,4.27255 -4.7108,5.26205 -4.6971,9.25 0.019,5.63704 0.536,6.40218 5.7249,8.47837 6.9709,2.7892 12.2927,10.61475 12.2323,17.98728 -0.052,6.3421 -6.9184,14.55767 -13.7536,16.45599 -4.715,1.30948 -5.8535,1.2648 -10.5637,-0.41464 z m -57.9052,-24.62145 c -0.9625,-0.56061 -1.75,-1.44692 -1.75,-1.96959 0,-0.52267 0.7875,-0.936 1.75,-0.91851 1.8163,0.033 5.25,2.2099 5.25,3.32844 0,0.97922 -3.286,0.70361 -5.25,-0.44034 z"
         id="path3437"
         inkscape:connector-curvature="0" />
      <path
         sodipodi:nodetypes="scsssssssscsssssssssssssssssssssscsssssssssscssscscsssssscscscssscsssssssss"
         style="fill:#2e3091"
         d="m -1199.8571,748.95873 c 0,-0.30913 2.2224,-3.49824 4.9386,-7.08692 10.0604,-13.29153 16.0614,-25.31539 16.0614,-32.1811 0,-2.64246 0.5799,-3.64772 2.75,-4.7671 4.7509,-2.45066 20.1481,-6.88591 21.7589,-6.26779 4.0314,1.54698 -2.8743,13.69666 -14.5089,25.52649 -9.7577,9.92141 -31,26.89911 -31,24.77642 z m -138.5,-5.31717 c 15.8379,-4.56438 22.9736,-7.00234 31.5743,-10.7875 10.6334,-4.67972 27.6545,-14.50118 30.412,-17.54815 1.6423,-1.8147 1.6561,-2.14889 0.1818,-4.39887 -1.4653,-2.2364 -8.2957,-4.61628 -13.2489,-4.61628 -2.3678,0 -13.3849,-3.93203 -16.2404,-5.79627 -2.55,-1.66476 -2.3222,-1.71657 9.9601,-2.26513 11.1383,-0.49746 13.2412,-0.88697 18.4655,-3.4202 9.1299,-4.42709 19.189,-15.28544 32.4411,-35.0184 12.9459,-19.27716 22.167,-29.25972 31.6792,-34.29516 18.9342,-10.02315 29.3796,-9.63296 49.2589,1.8401 11.7183,6.76298 18.7343,8.08963 30.2212,5.71441 10.1288,-2.09441 20.366,-6.92296 32.5221,-15.3395 5.2083,-3.60614 9.6448,-6.38152 9.8588,-6.16751 0.73,0.73003 -10.208,13.23275 -17.0895,19.53424 -3.9829,3.64714 -9.9764,7.82417 -14.2752,9.94878 -7.0105,3.46475 -8.0384,3.6832 -19.0655,4.05183 -7.0265,0.23489 -13.4427,-0.0775 -16.1555,-0.7865 -13.4435,-3.51363 -13.2184,-3.50513 -19.283,-0.72869 -6.6318,3.03615 -13.8417,10.06721 -17.279,16.8503 -3.0485,6.0159 -3.102,9.18738 -0.188,11.14642 1.2375,0.83196 2.025,1.67628 1.75,1.87627 -0.275,0.19999 -4.55,2.31556 -9.5,4.70127 -17.1842,8.28214 -41.3948,26.3128 -52.749,39.28446 -10.5986,12.10847 -34.6591,22.01772 -63.8793,26.30856 -5.8456,0.8584 -13.7206,1.51387 -17.5,1.4566 l -6.8717,-0.10411 z m 38,-100.83128 c 13.5219,-11.72927 39.9978,-24.34091 60,-28.58055 9.1304,-1.93528 28.2811,-2.5197 33.5,-1.02233 2.375,0.68143 2.3,0.78214 -1.5,2.01478 -2.2,0.71363 -7.5396,3.04599 -11.8658,5.18304 -7.0171,3.46629 -8.6726,3.88554 -15.3429,3.88554 -15.0324,0 -35.7084,5.74334 -55.2695,15.35263 -12.7549,6.26581 -13.3054,6.4489 -9.5218,3.16689 z m 221.142,-16.26952 c -0.271,-0.9625 -0.7813,-3.18644 -1.1341,-4.94209 -0.7965,-3.96403 -6.0013,-11.30791 -8.0142,-11.30791 -0.9424,0 -1.4937,-0.9608 -1.4937,-2.60345 0,-1.88813 -1.909,-4.51246 -6.9479,-9.55137 -3.8214,-3.82136 -6.4089,-7.11475 -5.75,-7.31864 0.6588,-0.20389 2.8462,-0.64381 4.8608,-0.9776 3.4844,-0.57731 3.7185,-0.43842 4.8039,2.85047 2.6715,8.09461 14.0704,22.69116 21.2832,27.25362 2.0625,1.30463 3.75,2.80726 3.75,3.33919 0,1.13844 -7.2575,5.00778 -9.3928,5.00778 -0.8098,0 -1.6942,-0.7875 -1.9652,-1.75 z m -80.9868,-6.70865 c -4.4914,-1.60139 -8.2178,-4.83478 -10.3931,-9.01795 -1.8394,-3.53729 -2.0367,-12.20751 -0.3496,-15.35999 1.5747,-2.94221 0.706,-5.03453 -3.5635,-8.58352 l -3.513,-2.9201 -8.168,1.00761 c -4.4924,0.55418 -8.3241,0.88715 -8.5149,0.73992 -0.4606,-0.35549 17.7216,-13.82224 21.9949,-16.29064 2.8285,-1.63383 22.548,-6.11668 26.9066,-6.11668 0.7536,0 -0.7504,2.15295 -3.3422,4.78435 -4.2083,4.27255 -4.7108,5.26205 -4.6971,9.25 0.019,5.63704 0.536,6.40218 5.7249,8.47837 6.9709,2.7892 12.2927,10.61475 12.2323,17.98728 -0.052,6.3421 -6.9184,14.55767 -13.7536,16.45599 -4.715,1.30948 -5.8535,1.2648 -10.5637,-0.41464 z m -57.9052,-24.62145 c -0.9625,-0.56061 -1.75,-1.44692 -1.75,-1.96959 0,-0.52267 0.7875,-0.936 1.75,-0.91851 1.8163,0.033 5.25,2.2099 5.25,3.32844 0,0.97922 -3.286,0.70361 -5.25,-0.44034 z"
         id="path3435"
         inkscape:connector-curvature="0" />
    </g>
  </g>
</svg>
